<svg aria-hidden="true" style="position: absolute; width: 0; height: 0; overflow: hidden;" version="1.1" xmlns="http://www.w3.org/2000/svg" xmlns:xlink="http://www.w3.org/1999/xlink">
<defs>
<symbol id="icon-map" viewBox="0 0 26 32">
<path fill="#fff5f5" style="fill: var(--color1, #fff5f5)" d="M11.872 31.702c0.271 0.193 0.595 0.297 0.928 0.297s0.657-0.104 0.928-0.297c0.486-0.344 11.918-8.598 11.872-18.902 0-7.058-5.742-12.8-12.8-12.8s-12.8 5.742-12.8 12.792c-0.046 10.312 11.386 18.566 11.872 18.91zM12.8 3.2c5.294 0 9.6 4.306 9.6 9.608 0.034 7.101-7.021 13.477-9.6 15.568-2.578-2.093-9.634-8.471-9.6-15.576 0-5.294 4.306-9.6 9.6-9.6z"></path>
<path fill="#fff5f5" style="fill: var(--color1, #fff5f5)" d="M12.8 19.2c3.53 0 6.4-2.87 6.4-6.4s-2.87-6.4-6.4-6.4-6.4 2.87-6.4 6.4c0 3.53 2.87 6.4 6.4 6.4zM12.8 9.6c1.765 0 3.2 1.435 3.2 3.2s-1.435 3.2-3.2 3.2c-1.765 0-3.2-1.435-3.2-3.2s1.435-3.2 3.2-3.2z"></path>
</symbol>
<symbol id="icon-time" viewBox="0 0 32 32">
<path fill="#fff5f5" style="fill: var(--color1, #fff5f5)" d="M16 0c-4.095 0-8.19 1.561-11.314 4.685-6.248 6.248-6.248 16.38 0 22.628s16.38 6.248 22.628 0c6.248-6.248 6.248-16.38 0-22.628-3.124-3.124-7.219-4.685-11.314-4.685zM16 4.18c3.025 0 6.051 1.153 8.359 3.461 4.616 4.616 4.616 12.102 0 16.718s-12.102 4.616-16.718 0c-4.616-4.616-4.616-12.102 0-16.718 2.308-2.308 5.334-3.461 8.359-3.461zM14.363 6.865v7.474h-4.142v4.092h8.234v-11.566h-4.092z"></path>
</symbol>
<symbol id="icon-phone" viewBox="0 0 25 32">
<path fill="none" stroke="#fff5f5" style="stroke: var(--color1, #fff5f5)" stroke-linejoin="round" stroke-linecap="round" stroke-miterlimit="4" stroke-width="4.4444" d="M13.581 21.802c0.198 0.127 0.422 0.157 0.633 0.083s0.399-0.247 0.531-0.49l0.341-0.625c0.179-0.334 0.411-0.605 0.677-0.791s0.561-0.284 0.859-0.284h2.88c0.509 0 0.998 0.283 1.358 0.787s0.562 1.188 0.562 1.901v4.032c0 0.713-0.202 1.397-0.562 1.901s-0.848 0.787-1.358 0.787c-4.583 0-8.978-2.549-12.219-7.086s-5.061-10.69-5.061-17.106c0-0.713 0.202-1.397 0.562-1.901s0.848-0.787 1.358-0.787h2.88c0.509 0 0.998 0.283 1.358 0.787s0.562 1.188 0.562 1.901v4.032c0 0.417-0.069 0.829-0.203 1.202s-0.327 0.698-0.565 0.948l-0.449 0.472c-0.176 0.188-0.3 0.456-0.352 0.758s-0.026 0.62 0.071 0.899c1.312 3.731 3.47 6.748 6.136 8.58z"></path>
</symbol>
<symbol id="icon-main" viewBox="0 0 32 32">
<path fill="#fff5f5" style="fill: var(--color1, #fff5f5)" d="M23.52 19.466c0 1.39 0.396 1.945 1.43 1.945 2.306 0 3.774-2.938 3.774-7.824 0-7.468-5.442-11.043-12.237-11.043-6.99 0-13.347 4.687-13.347 13.546 0 8.461 5.561 13.069 14.102 13.069 2.9 0 4.846-0.318 7.824-1.311l0.639 2.66c-2.94 0.955-6.081 1.231-8.503 1.231-11.202 0-17.202-6.157-17.202-15.651 0-9.574 6.953-16.088 16.527-16.088 9.971 0 15.252 5.959 15.252 13.268 0 6.197-1.945 10.924-8.062 10.924-2.782 0-4.608-1.112-4.846-3.577-0.715 2.741-2.622 3.577-5.206 3.577-3.456 0-6.356-2.663-6.356-8.024 0-5.402 2.544-8.739 7.112-8.739 2.423 0 3.933 0.953 4.605 2.463l1.154-2.105h3.337v11.681h0.003zM18.636 14.223c0-2.183-1.63-3.098-2.981-3.098-1.47 0-3.097 1.19-3.097 4.687 0 2.781 1.231 4.33 3.097 4.33 1.311 0 2.981-0.834 2.981-3.138v-2.781z"></path>
</symbol>
<symbol id="icon-star" viewBox="0 0 32 32">
<path d="M16 23l-9 6 4-10-9-6h10l4-10 4 10h10l-9 6 4 10z"></path>
</symbol>
<symbol id="icon-twitter" viewBox="0 0 32 32">
<path fill="none" stroke="#02897a" style="stroke: var(--color2, #02897a)" stroke-linejoin="round" stroke-linecap="round" stroke-miterlimit="4" stroke-width="2.6667" d="M30.667 4.013c-1.277 0.901-2.691 1.589-4.187 2.040-0.803-0.923-1.87-1.578-3.057-1.875s-2.437-0.222-3.58 0.214c-1.143 0.436-2.125 1.213-2.812 2.226s-1.047 2.211-1.031 3.435v1.333c-2.343 0.061-4.665-0.459-6.759-1.513s-3.894-2.609-5.241-4.527c0 0-5.333 12 6.667 17.333-2.746 1.864-6.017 2.799-9.333 2.667 12 6.667 26.667 0 26.667-15.333-0.001-0.371-0.037-0.742-0.107-1.107 1.361-1.342 2.321-3.036 2.773-4.893v0z"></path>
</symbol>
<symbol id="icon-facebook" viewBox="0 0 32 32">
<path fill="none" stroke="#02897a" style="stroke: var(--color2, #02897a)" stroke-linejoin="round" stroke-linecap="round" stroke-miterlimit="4" stroke-width="2.6667" d="M24 2.667h-4c-1.768 0-3.464 0.702-4.714 1.953s-1.953 2.946-1.953 4.714v4h-4v5.333h4v10.667h5.333v-10.667h4l1.333-5.333h-5.333v-4c0-0.354 0.141-0.693 0.391-0.943s0.589-0.391 0.943-0.391h4v-5.333z"></path>
</symbol>
<symbol id="icon-instagram" viewBox="0 0 32 32">
<path fill="none" stroke="#02897a" style="stroke: var(--color2, #02897a)" stroke-linejoin="round" stroke-linecap="round" stroke-miterlimit="4" stroke-width="2.6667" d="M22.667 2.667h-13.333c-3.682 0-6.667 2.985-6.667 6.667v13.333c0 3.682 2.985 6.667 6.667 6.667h13.333c3.682 0 6.667-2.985 6.667-6.667v-13.333c0-3.682-2.985-6.667-6.667-6.667z"></path>
<path fill="none" stroke="#02897a" style="stroke: var(--color2, #02897a)" stroke-linejoin="round" stroke-linecap="round" stroke-miterlimit="4" stroke-width="2.6667" d="M21.333 15.16c0.165 1.11-0.025 2.243-0.542 3.239s-1.334 1.803-2.336 2.308c-1.002 0.504-2.138 0.68-3.245 0.502s-2.131-0.701-2.924-1.494-1.316-1.816-1.494-2.924c-0.178-1.107-0.003-2.243 0.502-3.245s1.312-1.82 2.307-2.336c0.996-0.517 2.129-0.706 3.239-0.542 1.132 0.168 2.18 0.695 2.989 1.504s1.337 1.857 1.505 2.989z"></path>
<path fill="none" stroke="#02897a" style="stroke: var(--color2, #02897a)" stroke-linejoin="round" stroke-linecap="round" stroke-miterlimit="4" stroke-width="2.6667" d="M23.333 8.667h0.013"></path>
</symbol>
</defs>
</svg>
